PathFileType	4	(X/Y/Z)	D:/Ayumi_testdata/Ayumi_25_09_2024/motion/sumo_dl_80kg00/markers_experimental.trc	
DataRate	CameraRate	NumFrames	NumMarkers	Units	OrigDataRate	OrigDataStartFrame	OrigNumFrames	
200.00	200.00	5	52	mm	200.00	1540	2164	
Frame#	Time	RSACR			LSACR			USACR			LBAR			RBAR			RHEE			RMT1			RMT5			RMT2			LHEE			LMT1			LMT5			LMT2			LMMAL			LLMAL			LTIB4			LTIB2			LTIB3			LTIB1			RMMAL			RLMAL			RTIB1			RTIB2			RTIB3			RTHI1			RTHI4			RTHI3			RTHI2			LTHI1			LTHI4			LTHI3			LTHI2			FHD			LBHD			RBHD			C7			T10			CLAV			LSHO			RSHO			LRAD			LUL			LRFIN			RRAD			RUL			RUFIN			LDUPA			LMUPA			LUUPA			RDUPA			RUUPA			RMUPA			
		X1	Y1	Z1	X2	Y2	Z2	X3	Y3	Z3	X4	Y4	Z4	X5	Y5	Z5	X6	Y6	Z6	X7	Y7	Z7	X8	Y8	Z8	X9	Y9	Z9	X10	Y10	Z10	X11	Y11	Z11	X12	Y12	Z12	X13	Y13	Z13	X14	Y14	Z14	X15	Y15	Z15	X16	Y16	Z16	X17	Y17	Z17	X18	Y18	Z18	X19	Y19	Z19	X20	Y20	Z20	X21	Y21	Z21	X22	Y22	Z22	X23	Y23	Z23	X24	Y24	Z24	X25	Y25	Z25	X26	Y26	Z26	X27	Y27	Z27	X28	Y28	Z28	X29	Y29	Z29	X30	Y30	Z30	X31	Y31	Z31	X32	Y32	Z32	X33	Y33	Z33	X34	Y34	Z34	X35	Y35	Z35	X36	Y36	Z36	X37	Y37	Z37	X38	Y38	Z38	X39	Y39	Z39	X40	Y40	Z40	X41	Y41	Z41	X42	Y42	Z42	X43	Y43	Z43	X44	Y44	Z44	X45	Y45	Z45	X46	Y46	Z46	X47	Y47	Z47	X48	Y48	Z48	X49	Y49	Z49	X50	Y50	Z50	X51	Y51	Z51	X52	Y52	Z52	

1083	5.410	435.48090	962.79761	779.48206	435.61993	903.88666	779.66174	419.12643	932.48157	786.65387	219.32587	-195.74315	319.51395	133.98193	2023.15955	326.76807	290.07056	1377.92969	34.37018	124.77444	1484.81592	43.49899	189.66417	1533.59094	30.93704	153.52800	1513.89832	42.68339	330.72745	481.92972	45.71792	163.21873	387.11908	49.68367	225.87207	336.52518	29.25145	187.63187	356.51376	45.42036	268.97260	494.77438	71.80367	307.98123	424.51959	73.63562	315.24316	463.18781	211.66957	296.82059	459.25644	274.51675	334.44901	492.86905	267.38489	326.43982	495.06821	308.30035	237.26738	1371.93579	62.86297	276.53635	1435.16150	72.50627	256.53598	1396.54138	316.59665	298.80490	1372.19507	303.25482	269.32031	1403.30066	253.34482	429.18170	1140.63269	666.98749	332.28024	1235.11487	585.70575	369.21130	1237.42639	549.87762	386.89172	1201.80090	602.31879	449.72278	737.75537	658.71741	356.92642	634.82123	585.92163	397.66583	642.36127	554.58301	400.30936	676.86267	610.79767	-107.56446	825.41156	1151.07703	3.97565	834.34058	1168.62891	19.96811	957.97931	1155.38281	65.65920	896.59790	1016.89069	375.72070	925.88391	814.78156	24.77684	906.99054	884.41595	52.70189	726.64624	927.45758	26.02034	1054.77136	920.92450	144.58034	689.84790	400.91119	143.59842	649.19592	400.61276	150.22809	707.20581	315.43173	129.18610	1133.65417	400.16974	122.35338	1181.76367	400.27264	130.82336	1122.66150	313.55862	87.99494	715.43542	703.22040	110.87362	674.25690	687.46918	87.23523	693.73669	760.46808	76.78922	1072.30542	669.83472	63.83002	1101.89624	742.99371	79.55656	1119.95667	685.22638 
1084	5.415	435.69028	962.62714	780.52173	435.87265	903.80371	780.62286	419.32056	932.30963	787.74237	219.26820	-195.81277	320.62988	133.98376	2023.14221	328.48184	290.08868	1377.97888	34.33560	124.50433	1484.99011	43.63053	189.67232	1533.63928	30.91602	153.50053	1513.89563	42.75523	330.73825	481.92606	45.65300	163.25778	387.11673	49.70960	225.88539	336.50323	29.25717	187.65471	356.49878	45.43577	269.01462	494.77505	71.78114	307.98697	424.54333	73.54002	315.48056	463.18640	211.60576	297.13147	459.35141	274.45279	334.76035	492.88287	267.25949	326.82327	495.17773	308.21014	237.30978	1371.94153	62.84515	276.59131	1435.19250	72.50066	256.29620	1396.14539	317.05777	299.29861	1371.94653	303.16241	269.62604	1403.08105	253.31317	429.35825	1140.48071	667.69238	332.48224	1234.85718	586.08264	369.16379	1237.42468	550.44110	387.14240	1201.55457	602.84863	449.72043	737.70319	659.50500	357.05142	634.80518	586.39978	397.87677	642.36993	555.16406	400.40817	676.78204	611.44745	-106.80559	825.33392	1152.92407	4.75695	834.15997	1170.23059	20.82251	957.81122	1157.02649	66.21303	896.59247	1018.47430	375.94040	925.75482	815.94000	25.08138	906.88434	886.03778	53.01245	726.52515	928.90845	26.46690	1054.71033	922.56757	144.58708	689.74597	402.30966	143.61592	649.12512	402.01587	150.14450	707.16309	316.84839	129.22722	1133.61060	401.72598	122.42686	1181.74780	401.84189	130.83688	1122.65491	315.01608	87.92374	715.16290	704.68707	110.98745	674.20087	688.89087	87.40083	693.66803	761.91113	76.99804	1072.27344	671.42151	64.33467	1101.64880	744.61279	79.77752	1119.91565	686.82379 
1085	5.420	435.83539	962.46344	781.58826	435.87201	903.52795	781.77173	419.44547	932.10297	788.83136	219.20920	-195.85725	321.74146	133.99966	2023.10327	330.25464	290.08572	1378.01257	34.28793	124.54644	1485.01953	43.62177	189.67281	1533.77539	31.02913	153.43236	1513.98206	42.63461	330.75763	481.90973	45.59716	163.29346	387.11124	49.72837	225.90044	336.48499	29.25768	187.65675	356.47290	45.43644	269.05780	494.77823	71.76267	308.02802	424.52603	73.50943	315.76389	463.14456	211.54135	297.42456	459.45496	274.40985	334.98026	492.99954	267.16043	327.16318	495.28467	308.12433	237.35020	1371.98169	62.79998	276.63931	1435.20886	72.48007	256.74210	1395.84680	317.06464	299.65897	1371.70117	303.08200	269.97311	1402.85376	253.30104	429.45834	1140.31689	668.39539	332.72214	1234.63440	586.47223	369.41064	1237.14124	550.88336	387.33600	1201.34277	603.37634	449.67560	737.66156	660.27411	357.17871	634.77148	586.90765	398.03809	642.39935	555.76001	400.43161	676.74554	612.07343	-106.08524	825.23230	1154.77820	5.53194	833.97559	1171.85718	21.77365	957.97882	1158.76147	66.51707	896.34424	1019.97101	376.18698	925.57422	817.09119	25.41429	906.81146	887.69196	53.35035	726.39301	930.38800	26.90107	1054.64746	924.23352	144.59442	689.67267	403.71161	143.68523	649.07404	403.44107	150.07632	707.11859	318.28506	129.26778	1133.57275	403.29852	122.48060	1181.70044	403.42874	130.71356	1122.62781	316.65869	88.11696	715.10632	706.13287	111.12248	674.14923	690.33557	87.60064	693.62543	763.36768	77.23757	1072.37500	672.81409	64.59696	1101.60583	746.21613	79.76559	1119.84631	688.45941 
1086	5.425	435.97998	962.27417	782.62512	436.23776	903.18280	782.96234	419.57352	931.92493	789.91919	219.13876	-195.87860	322.86304	133.99500	2023.08167	332.04599	290.09961	1378.03931	34.26904	124.57969	1485.05945	43.66263	189.67395	1533.82434	31.02942	153.42049	1513.99072	42.68135	330.78128	481.90021	45.55305	163.31470	387.10239	49.73902	225.82317	336.44257	29.11680	187.63795	356.44101	45.42260	269.09973	494.76614	71.73972	308.03046	424.54321	73.46423	315.99988	463.18970	211.51656	297.73700	459.51215	274.37378	335.26889	493.05789	267.07431	327.53619	495.36829	308.06415	237.38689	1371.99060	62.77391	276.68179	1435.21912	72.45506	257.17838	1395.55359	317.05249	300.11133	1371.46643	302.98480	270.27222	1402.66052	253.31444	429.60281	1140.16223	669.11584	332.91348	1234.39270	586.87354	369.66418	1236.83936	551.34821	387.44009	1201.14783	603.94971	449.62119	737.60657	661.08008	357.27399	634.75317	587.40448	398.21896	642.37927	556.37885	400.44882	676.68610	612.74316	-105.34577	825.13019	1156.65442	6.29607	833.77191	1173.48914	22.61011	957.76617	1160.42358	67.12171	896.20190	1021.72144	376.37524	925.37720	818.24646	25.46234	906.77942	889.33545	53.68510	726.28137	931.90363	27.32215	1054.56116	925.91144	144.65045	689.61871	405.15265	143.74216	649.00537	404.88147	150.03352	707.07471	319.72873	129.31839	1133.55225	404.87869	122.55589	1181.67224	405.02698	130.61523	1122.57654	318.26559	88.34342	715.10321	707.60205	111.23627	674.07776	691.79272	87.80444	693.54590	764.85352	77.40373	1072.18372	674.67181	64.86755	1101.57080	747.85303	80.28029	1119.83350	690.04755 
1087	5.430	436.11801	962.06860	783.70721	436.32034	903.03479	783.95966	419.71478	931.73260	791.04559	219.08153	-195.91840	324.01184	134.02142	2023.05640	333.85385	290.12140	1378.07788	34.22619	124.61110	1485.07764	43.69020	189.66747	1533.86572	31.03906	153.40492	1513.99805	42.73430	330.80164	481.88321	45.51913	163.33263	387.08417	49.75407	225.85001	336.42813	29.13815	187.69189	356.42615	45.44922	269.13696	494.75787	71.73898	308.07343	424.56342	73.44544	316.20181	463.20694	211.44673	298.05594	459.52811	274.33368	335.58499	493.07779	267.00284	327.91284	495.43204	307.99927	237.41705	1372.03760	62.74833	276.72321	1435.21741	72.44033	258.27179	1395.36975	316.60205	300.58844	1371.24463	302.92963	270.62161	1402.44299	253.28874	429.68506	1139.99829	669.87140	333.05304	1234.18127	587.30042	369.94577	1236.57373	551.84668	387.60895	1200.97205	604.50018	449.51886	737.55707	661.86047	357.36728	634.74036	587.94061	398.36224	642.37512	557.03296	400.41019	676.81427	613.43640	-104.65818	825.05951	1158.57263	7.06149	833.57440	1175.15161	23.47286	957.55341	1162.12854	67.47949	896.13977	1023.27924	376.58630	925.20001	819.40472	26.04732	906.65179	891.04333	54.01038	726.16016	933.44342	27.73798	1054.48303	927.59631	144.66261	689.57153	406.60413	143.77605	648.94098	406.34781	149.95015	707.02527	321.19803	129.36060	1133.51074	406.47659	122.60200	1181.63403	406.63589	130.57088	1122.54504	319.87646	88.61237	715.13055	709.06958	111.37198	673.95807	693.26636	88.03500	693.47870	766.37219	77.63905	1072.14392	676.29620	65.12580	1101.51111	749.49963	80.47721	1119.79285	691.69165 
